<?xml version="1.0" standalone="yes"?>
<svg xmlns="http://www.w3.org/2000/svg" width="301" height="126">
<path style="fill:none; stroke:none;" d="M0 0L0 126L301 126L301 0L0 0z"/>
<path style="fill:#fcfaf5; stroke:none;" d="M119 8L113 21L95 19C94.8826 28.9446 90.4285 37.9632 80 38L78 56L83 56C79.0989 60.9642 79 64.85 79 71C85.995 74.9405 87.6766 83.9111 89.7847 91C91.8199 97.8436 97.4593 104.17 98.7662 111.09C99.5733 115.363 98.0034 120.579 98 125L199 125C198.997 120.494 197.016 116.015 197.142 111.754C197.27 107.441 200.856 102.723 202.742 99C206.748 91.0876 207.228 74.0748 217 71C217 64.177 216.657 61.0731 212 56L220 55L219 37C208.375 36.9625 202.34 28.4419 202 18L193 20L185 19C183.588 14.8084 178 6.59966 173.024 7.16667C169.265 7.59503 166.997 11.0323 162.996 10.4853C157.331 9.71076 154.725 3.77432 149.893 3.16744C143.27 2.33566 140.021 10.3278 133.834 11.3958C129.434 12.1554 124.009 8.0177 119 8z"/>
<path style="fill:#f9ac22; stroke:none;" d="M148 7L140 13L144 23L153 23L157 13L148 7z"/>
<path style="fill:#b42c05; stroke:none;" d="M145 8L146 9L145 8z"/>
<path style="fill:#8ea0ab; stroke:none;" d="M175 8L176 9L175 8z"/>
<path style="fill:#010304; stroke:none;" d="M172 9L173 10L172 9z"/>
<path style="fill:#8ea0ab; stroke:none;" d="M173 9L174 10L173 9z"/>
<path style="fill:#b42c05; stroke:none;" d="M144 10L145 11L144 10z"/>
<path style="fill:#8ea0ab; stroke:none;" d="M171 10L172 11L171 10z"/>
<path style="fill:#010304; stroke:none;" d="M171 11L172 12L171 11z"/>
<path style="fill:#8ea0ab; stroke:none;" d="M173 11L174 14L175 14L175 11L173 11M122 12L122 13L122 14L127 16L122 12M163 12L163 14L165 14L163 12z"/>
<path style="fill:#010304; stroke:none;" d="M164.667 12.3333L165.333 12.6667L164.667 12.3333z"/>
<path style="fill:#8ea0ab; stroke:none;" d="M166 12L166 13L169 13L166 12z"/>
<path style="fill:#010304; stroke:none;" d="M173 12L165 16L166 25L174 27L180 20L173 12M176 12L177 13L176 12M123 13L117 20L123 28L124 28L126 24L132 26L133 16L123 13M120 14L121 15L120 14z"/>
<path style="fill:#8ea0ab; stroke:none;" d="M135 14L136 15L135 14z"/>
<path style="fill:#f9ac22; stroke:none;" d="M138 14L139 15L138 14z"/>
<path style="fill:#8ea0ab; stroke:none;" d="M132 15L133 16L132 15M164 17L171 16L164 17M118 16L119 17L118 16M177 16L176 18L177 16z"/>
<path style="fill:#010304; stroke:none;" d="M178 16L179 17L178 16M118 17L119 18L118 17z"/>
<path style="fill:#8ea0ab; stroke:none;" d="M121 17L122 18L121 17M134.667 17.3333L135.333 17.6667L134.667 17.3333M165 17L166 18L165 17z"/>
<path style="fill:#fcfaf5; stroke:none;" d="M177.667 17.3333L178.333 17.6667L177.667 17.3333z"/>
<path style="fill:#8ea0ab; stroke:none;" d="M179 17L180 18L179 17M119 18L120 19L119 18M131 18L132 19L131 18z"/>
<path style="fill:#010304; stroke:none;" d="M134 18L135 19L134 18M137 18L136 28C140.241 25.1008 140.73 21.6534 137 18M159 18C156.176 23.3002 158.346 26.4773 158.857 32C160.325 47.8431 166.746 56.6888 173 71C182.724 68.1805 200.185 64.3972 202 53L196 52L200 37L199 37C196.559 48.704 188.406 37.2129 182 37L184 24L175.856 31.3781L161 30L159 18z"/>
<path style="fill:#8ea0ab; stroke:none;" d="M178 18L179 19L178 18M117 19L118 20L117 19M130 19L131 20L130 19z"/>
<path style="fill:#010304; stroke:none;" d="M164 19L165 20L164 19z"/>
<path style="fill:#8ea0ab; stroke:none;" d="M180 19L181 20L180 19z"/>
<path style="fill:#f9ac22; stroke:none;" d="M199.667 19.3333L200.333 19.6667L199.667 19.3333z"/>
<path style="fill:#8ea0ab; stroke:none;" d="M116 20L117 21L116 20z"/>
<path style="fill:#010304; stroke:none;" d="M132 20L133 21L132 20z"/>
<path style="fill:#8ea0ab; stroke:none;" d="M165 20L166 21L165 20M167 20L168 21L167 20M179 20L180 21L179 20M182 20L183 21L182 20z"/>
<path style="fill:#f9ac22; stroke:none;" d="M195 20L196 21L195 20M197 20L198 21L197 20z"/>
<path style="fill:#b42c05; stroke:none;" d="M198 20L199 21L198 20M99 21L100 22L99 21z"/>
<path style="fill:#8ea0ab; stroke:none;" d="M118 21L119 22L118 21z"/>
<path style="fill:#f9ac22; stroke:none;" d="M142 21L143 22L142 21z"/>
<path style="fill:#8ea0ab; stroke:none;" d="M177 21L178 22L177 21M120 22L121 23L120 22M130 22L131 23L130 22z"/>
<path style="fill:#010304; stroke:none;" d="M164 22L165 23L164 22z"/>
<path style="fill:#8ea0ab; stroke:none;" d="M166 22L167 23L166 22M175 22L176 23L175 22z"/>
<path style="fill:#f9ac22; stroke:none;" d="M188 23L186 34L195 38L202 32L199 22L188 23M101 23L102 24L101 23M111 23L112 24L111 23z"/>
<path style="fill:#8ea0ab; stroke:none;" d="M119 23L120 24L119 23z"/>
<path style="fill:#b42c05; stroke:none;" d="M146 23L147 24L146 23z"/>
<path style="fill:#f9ac22; stroke:none;" d="M99 24L95 34L103 40L111 36L109 25L99 24z"/>
<path style="fill:#010304; stroke:none;" d="M114 24L115 39C110.824 39.1371 108.728 39.6381 108 44L101 44C102.749 51.4559 96.4222 52.2594 96.3457 57.9498C96.2642 64.0114 117.188 69.3621 122 71C130.526 58.3497 136.306 46.3037 136 31L119 33L114 24z"/>
<path style="fill:#8ea0ab; stroke:none;" d="M126 24L127 25L126 24M165 24L165 26L167 26L165 24M168 24L168 25L171 25L168 24M125 25L126 26L125 25M128.667 25.3333L129.333 25.6667L128.667 25.3333M133 25L134 26L133 25z"/>
<path style="fill:#010304; stroke:none;" d="M163 25L164 26L163 25z"/>
<path style="fill:#b42c05; stroke:none;" d="M97 26L96 28L98 28L97 26z"/>
<path style="fill:#010304; stroke:none;" d="M120 26L121 27L120 26z"/>
<path style="fill:#8ea0ab; stroke:none;" d="M131 26L132 27L131 26z"/>
<path style="fill:#010304; stroke:none;" d="M169 26L172 28L169 26z"/>
<path style="fill:#8ea0ab; stroke:none;" d="M172 26L173 27L172 26M174 26L173 28L175 28L174 26M122.333 27.6667L122.667 28.3333L122.333 27.6667z"/>
<path style="fill:#010304; stroke:none;" d="M129 27L130 28L129 27z"/>
<path style="fill:#8ea0ab; stroke:none;" d="M162 27L163 28L162 27z"/>
<path style="fill:#010304; stroke:none;" d="M163.333 27.6667L163.667 28.3333L163.333 27.6667M166 27L167 28L166 27M176 27L177 28L176 27z"/>
<path style="fill:#f9ac22; stroke:none;" d="M110 28L111 29L110 28z"/>
<path style="fill:#8ea0ab; stroke:none;" d="M132.333 28.6667L132.667 29.3333L132.333 28.6667z"/>
<path style="fill:#b42c05; stroke:none;" d="M138 31L139 31L141 29L138 31z"/>
<path style="fill:#f9ac22; stroke:none;" d="M141 28L142 29L141 28M145 28L145 29L149 29L149 28L145 28z"/>
<path style="fill:#b42c05; stroke:none;" d="M154 28L155 29L154 28z"/>
<path style="fill:#f9ac22; stroke:none;" d="M95 29L94 31L96 31L95 29z"/>
<path style="fill:#b42c05; stroke:none;" d="M96 29L97 30L96 29z"/>
<path style="fill:#f9ac22; stroke:none;" d="M202 29L203 30L202 29M142 36L123 80L121 80C116.729 70.9245 106.094 70.4819 98.0008 66.2153C94.0366 64.1254 91.1392 60.5629 87 59C87.4752 70.154 102.27 74.5413 108.338 81.7191C110.24 83.9689 107.733 87.9016 105.023 86.0293C102.665 84.4001 101.744 80.2208 99.8526 78C98.047 75.8797 95.9674 73.9675 94 72C90.5592 68.5592 87.4354 65.0684 83 63L82 67C94.8091 74.7854 89.8824 95.5502 101.394 102.972C108.532 107.575 127.566 104 136 104L178 104C182.369 104 190.629 105.579 194.363 102.972C200.928 98.3889 202.333 84.9844 205.068 78C207.063 72.9056 212.825 68.4813 212 63C208.293 65.6114 205.206 68.7939 202 72C200.033 73.9676 197.953 75.8797 196.147 78C194.238 80.2421 193.289 84.4106 190.861 86.0293C188.085 87.8803 185.765 83.9487 187.661 81.7191C193.297 75.092 209.533 69.8538 208 59L206 59L173 80C167.664 67.6157 158.698 57.2474 155.153 44C153.587 38.1494 156.778 30.6204 149 30C149 41.541 148.081 53.5033 149.059 65C149.346 68.3767 152.551 71.7183 152.083 74.9807C151.551 78.6999 147.002 80.3708 144.362 77.6628C140.927 74.1395 145.611 69.8345 145.942 65.9606C146.632 57.8914 149.037 39.5546 145.397 32.3333C143.481 28.5307 138.267 32.7288 142 36z"/>
<path style="fill:#b42c05; stroke:none;" d="M156 30L157 31L156 30M94 31L95 32L94 31M110 31L111 32L110 31z"/>
<path style="fill:#f9ac22; stroke:none;" d="M156 31L157 32L156 31M185 31L186 32L185 31M93 32L94 33L93 32z"/>
<path style="fill:#010304; stroke:none;" d="M184 32L185 33L184 32z"/>
<path style="fill:#b42c05; stroke:none;" d="M199 34L200 35L199 34M138 35L139 36L138 35M156 35L157 36L156 35z"/>
<path style="fill:#8ea0ab; stroke:none;" d="M205.667 36.3333L206.333 36.6667L205.667 36.3333z"/>
<path style="fill:#b42c05; stroke:none;" d="M99 37L100 38L99 37M191 37L192 38L191 37z"/>
<path style="fill:#8ea0ab; stroke:none;" d="M92 38L93 39L92 38z"/>
<path style="fill:#f9ac22; stroke:none;" d="M100 38L101 39L100 38z"/>
<path style="fill:#8ea0ab; stroke:none;" d="M204 38L203 46L204 46L204 38M217.333 38.6667L217.667 39.3333L217.333 38.6667M94 39L93 41L95 41L94 39z"/>
<path style="fill:#010304; stroke:none;" d="M205 39L201 47L206 49L206 54L216 50L215 40L205 39M202 40L202 43L203 43L202 40z"/>
<path style="fill:#8ea0ab; stroke:none;" d="M207 40L208 41L207 40M213 40L214 41L213 40z"/>
<path style="fill:#010304; stroke:none;" d="M216 40L217 41L216 40z"/>
<path style="fill:#8ea0ab; stroke:none;" d="M83 41L83 43L85 41L83 41M91 41L90 43L91 41z"/>
<path style="fill:#010304; stroke:none;" d="M84 42L82 52C86.4135 51.9527 88.2451 52.4438 91 56L92 56L97 50L94 41L84 42z"/>
<path style="fill:#8ea0ab; stroke:none;" d="M210 41L211 42L210 41M214 41L215 42L214 41M86.6667 42.3333L87.3333 42.6667L86.6667 42.3333z"/>
<path style="fill:#010304; stroke:none;" d="M98 42L99 43L98 42z"/>
<path style="fill:#b42c05; stroke:none;" d="M156 42L157 43L156 42z"/>
<path style="fill:#8ea0ab; stroke:none;" d="M201 42L202 43L201 42M88 43L89 44L88 43z"/>
<path style="fill:#f9ac22; stroke:none;" d="M138 43L139 44L138 43z"/>
<path style="fill:#8ea0ab; stroke:none;" d="M95.3333 44.6667L95.6667 45.3333L95.3333 44.6667M213 44L214 45L213 44z"/>
<path style="fill:#010304; stroke:none;" d="M215 44L216 45L215 44z"/>
<path style="fill:#8ea0ab; stroke:none;" d="M84 45L85 46L84 45M93 45L94 46L93 45M94 46L95 47L94 46z"/>
<path style="fill:#b42c05; stroke:none;" d="M137 46L138 47L137 46z"/>
<path style="fill:#f9ac22; stroke:none;" d="M157 46L158 47L157 46z"/>
<path style="fill:#8ea0ab; stroke:none;" d="M213 46L214 47L213 46M215 46L216 47L215 46z"/>
<path style="fill:#010304; stroke:none;" d="M82 47L83 48L82 47z"/>
<path style="fill:#8ea0ab; stroke:none;" d="M95 47L96 48L95 47M198 47L199 48L198 47M200 47L203 49L203 48L200 47M214 47L215 48L214 47M84 48L85 49L84 48M97.3333 48.6667L97.6667 49.3333L97.3333 48.6667z"/>
<path style="fill:#010304; stroke:none;" d="M217 48L218 49L217 48z"/>
<path style="fill:#8ea0ab; stroke:none;" d="M205 49L206 50L205 49z"/>
<path style="fill:#010304; stroke:none;" d="M79 50L80 51L79 50z"/>
<path style="fill:#8ea0ab; stroke:none;" d="M80.3333 50.6667L80.6667 51.3333L80.3333 50.6667M93 50L93 51L96 51L93 50z"/>
<path style="fill:#f9ac22; stroke:none;" d="M159 50L160 51L159 50z"/>
<path style="fill:#8ea0ab; stroke:none;" d="M202.667 50.3333L203.333 50.6667L202.667 50.3333M210 50L210 51L216 51L210 50M87 51L88 52L87 51M209 51L210 52L209 51M82 52L83 53L82 52M88 52L89 53L88 52M92.3333 52.6667L92.6667 53.3333L92.3333 52.6667M94 52L95 53L94 52M208 52L209 53L208 52M215 52L214 54L215 52M79 53L80 54L79 53M89 53L90 54L89 53z"/>
<path style="fill:#010304; stroke:none;" d="M204 53L205 54L204 53z"/>
<path style="fill:#f9ac22; stroke:none;" d="M160 54L161 55L160 54z"/>
<path style="fill:#8ea0ab; stroke:none;" d="M206 54L207 55L206 54M87 55L88 56L87 55M208 55L209 56L208 55z"/>
<path style="fill:#f9ac22; stroke:none;" d="M161 56L162 57L161 56z"/>
<path style="fill:#010304; stroke:none;" d="M207 56L208 57L207 56M90 57L91 58L90 57z"/>
<path style="fill:#f9ac22; stroke:none;" d="M133 57L134 58L133 57M162 58L163 59L162 58M130 60L131 61L130 60z"/>
<path style="fill:#b42c05; stroke:none;" d="M82 61L83 62L82 61z"/>
<path style="fill:#f9ac22; stroke:none;" d="M83 61L84 62L83 61M93 61L94 62L93 61z"/>
<path style="fill:#b42c05; stroke:none;" d="M202 61L203 62L202 61z"/>
<path style="fill:#010304; stroke:none;" d="M201 62L202 63L201 62z"/>
<path style="fill:#b42c05; stroke:none;" d="M199 63L200 64L199 63z"/>
<path style="fill:#f9ac22; stroke:none;" d="M166 65L168 67L166 65M104 67L105 68L104 67z"/>
<path style="fill:#b42c05; stroke:none;" d="M190 67L191 68L190 67z"/>
<path style="fill:#f9ac22; stroke:none;" d="M107 68L108 69L107 68M127 68L128 69L127 68z"/>
<path style="fill:#b42c05; stroke:none;" d="M168 68L169 69L168 68z"/>
<path style="fill:#f9ac22; stroke:none;" d="M188 68L189 69L188 68M84 69L85 70L84 69M110 69L111 70L110 69M113 70L114 71L113 70M125.333 70.6667L125.667 71.3333L125.333 70.6667z"/>
<path style="fill:#b42c05; stroke:none;" d="M169 70L170 71L169 70M149 71L151 73L149 71z"/>
<path style="fill:#f9ac22; stroke:none;" d="M178 71L179 72L178 71z"/>
<path style="fill:#b42c05; stroke:none;" d="M117 72L118 73L117 72M144 72L145 73L144 72M175 72L176 73L175 72z"/>
<path style="fill:#f9ac22; stroke:none;" d="M209 72L210 73L209 72M85 73L86 74L85 73z"/>
<path style="fill:#b42c05; stroke:none;" d="M86 73L87 74L86 73M176 73L177 74L176 73z"/>
<path style="fill:#f9ac22; stroke:none;" d="M123 74L124 75L123 74M176 74L177 75L176 74z"/>
<path style="fill:#b42c05; stroke:none;" d="M87 75L88 76L87 75M120 75L122 77L120 75M175 75L176 76L175 75z"/>
<path style="fill:#f9ac22; stroke:none;" d="M174 76L175 77L174 76z"/>
<path style="fill:#b42c05; stroke:none;" d="M147 77L148 78L147 77z"/>
<path style="fill:#f9ac22; stroke:none;" d="M206 78L207 79L206 78M187 82L188 83L187 82M91 86L92 87L91 86M203.333 87.6667L203.667 88.3333L203.333 87.6667M92 89L93 90L92 89z"/>
<path style="fill:#b42c05; stroke:none;" d="M204 89L205 90L204 89M93 91L94 92L93 91z"/>
<path style="fill:#f9ac22; stroke:none;" d="M201 93L202 94L201 93M94 94L95 95L94 94M200 95L201 96L200 95M95 96L96 97L95 96M96 100L97 101L96 100z"/>
<path style="fill:#b42c05; stroke:none;" d="M98 105L99 106L98 105z"/>
<path style="fill:#f9ac22; stroke:none;" d="M98 106L99 107L98 106M196.667 106.333L197.333 106.667L196.667 106.333z"/>
<path style="fill:#8ea0ab; stroke:none;" d="M103 108L103 109L190 109L163 108L103 108M191 108L193 110L193 108L191 108M101 109L102 110L101 109z"/>
<path style="fill:#010304; stroke:none;" d="M103 109C106.738 117.81 113.583 116 122 116L172 116C180.155 116 189.649 118.664 192 109L103 109M194 109L195 110L194 109z"/>
<path style="fill:#8ea0ab; stroke:none;" d="M103 110L104 111L103 110M191 111L192 112L191 111z"/>
<path style="fill:#010304; stroke:none;" d="M193 111L194 112L193 111z"/>
<path style="fill:#8ea0ab; stroke:none;" d="M104 112L105 113L104 112M192.667 113.333L193.333 113.667L192.667 113.333M105 114L106 115L105 114M103 115L104 116L103 115z"/>
<path style="fill:#b42c05; stroke:none;" d="M192 115L193 116L192 115z"/>
<path style="fill:#8ea0ab; stroke:none;" d="M106 116L107 117L106 116z"/>
<path style="fill:#f9ac22; stroke:none;" d="M102 121L195 121C189.769 114.401 181.657 116 174 116L123 116C116.069 116 105.82 113.903 102 121M195 117L196 118L195 117M197 119L196 121L197 119M196.333 122.667L196.667 123.333L196.333 122.667z"/>
</svg>
